# xmcd
#
# Track frame offsets:
#	150
#	18092
#	33574
#	51881
#	71296
#	90581
#	102381
#	118992
#	135252
#	152646
#	170045
#	181525
#
# Disc length: 2701 seconds
#
# Revision: 0
# Processed by: cddbd v1.5.2PL0 Copyright (c) Steve Scherf et al.
# Submitted via: dBpowerAMP V4.0
#
DISCID=920a8b0c
DTITLE=John Fogerty - Blue Moon Swamp
DYEAR=1997
DGENRE=Blues
TTITLE0=Southern Streamline
TTITLE1=Hot Rod Heart
TTITLE2=Blueboy
TTITLE3=A Hundred And Ten In The Shade
TTITLE4=Rattelsnake Highway
TTITLE5=Bring It Down Jelly Roll
TTITLE6=Walking In A Hurricane
TTITLE7=Swamp River Days
TTITLE8=Rambunctious Boys
TTITLE9=Joy Of My Life
TTITLE10=Blue Moon Nights
TTITLE11=Bad Bad Boy
EXTD=
EXTT0=
EXTT1=
EXTT2=
EXTT3=
EXTT4=
EXTT5=
EXTT6=
EXTT7=
EXTT8=
EXTT9=
EXTT10=
EXTT11=
PLAYORDER=
